G75*
G70*
%OFA0B0*%
%FSLAX24Y24*%
%IPPOS*%
%LPD*%
%AMOC8*
5,1,8,0,0,1.08239X$1,22.5*
%
%ADD10C,0.1340*%
%ADD11O,0.0624X0.1168*%
%ADD12OC8,0.0760*%
%ADD13C,0.2290*%
%ADD14OC8,0.0624*%
%ADD15C,0.0828*%
%ADD16O,0.0960X0.0520*%
%ADD17O,0.0520X0.0960*%
%ADD18C,0.0830*%
%ADD19OC8,0.0830*%
%ADD20C,0.1080*%
%ADD21OC8,0.1080*%
%ADD22O,0.1168X0.0624*%
%ADD23O,0.0760X0.1440*%
%ADD24C,0.0520*%
%ADD25C,0.0710*%
%ADD26OC8,0.0710*%
%ADD27O,0.1440X0.0760*%
%ADD28OC8,0.0930*%
%ADD29OC8,0.0692*%
%ADD30OC8,0.0749*%
%ADD31C,0.1182*%
%ADD32O,0.1655X0.0867*%
%ADD33O,0.0867X0.1655*%
%ADD34C,0.0480*%
%ADD35C,0.1970*%
D10*
X043864Y009392D03*
X043864Y014392D03*
D11*
X043364Y026892D03*
X042364Y026892D03*
X041364Y026892D03*
X040364Y026892D03*
X039364Y026892D03*
X038364Y026892D03*
X037364Y026892D03*
X036364Y026892D03*
X035364Y026892D03*
X034364Y026892D03*
X033364Y026892D03*
X032364Y026892D03*
X031364Y026892D03*
X030364Y026892D03*
X030364Y029892D03*
X031364Y029892D03*
X032364Y029892D03*
X033364Y029892D03*
X034364Y029892D03*
X035364Y029892D03*
X036364Y029892D03*
X037364Y029892D03*
X038364Y029892D03*
X039364Y029892D03*
X040364Y029892D03*
X041364Y029892D03*
X042364Y029892D03*
X043364Y029892D03*
X009364Y019392D03*
X008364Y019392D03*
X007364Y019392D03*
X006364Y019392D03*
X006364Y016392D03*
X007364Y016392D03*
X008364Y016392D03*
X009364Y016392D03*
D12*
X008864Y009392D03*
X007864Y009392D03*
X006864Y009392D03*
X005864Y009392D03*
X005864Y008392D03*
X006864Y008392D03*
X007864Y008392D03*
X008864Y008392D03*
X022704Y008892D03*
X023784Y008892D03*
X023244Y007892D03*
X024324Y007892D03*
X024864Y008892D03*
X025944Y008892D03*
X027024Y008892D03*
X026484Y007892D03*
X025404Y007892D03*
X020864Y021892D03*
X019864Y021892D03*
X019864Y022892D03*
X019864Y023892D03*
X020864Y023892D03*
X020864Y022892D03*
X020864Y024892D03*
X019864Y024892D03*
X006864Y026892D03*
X005864Y026892D03*
X005864Y027892D03*
X006864Y027892D03*
X006864Y028892D03*
X005864Y028892D03*
X005864Y029892D03*
X005864Y030892D03*
X006864Y030892D03*
X006864Y029892D03*
X006864Y031892D03*
X005864Y031892D03*
X005864Y032892D03*
X006864Y032892D03*
X006864Y033892D03*
X005864Y033892D03*
D13*
X019934Y008392D03*
X029794Y008392D03*
D14*
X037864Y014392D03*
X038614Y014892D03*
X037864Y015392D03*
X039364Y016892D03*
X040364Y016892D03*
X041364Y016892D03*
X042364Y016892D03*
X043364Y016892D03*
X040864Y015392D03*
X040114Y014892D03*
X040864Y014392D03*
X036864Y018142D03*
X036364Y018892D03*
X037364Y018892D03*
X039364Y020892D03*
X040364Y020892D03*
X041364Y020892D03*
X042364Y020892D03*
X043364Y020892D03*
X043364Y021892D03*
X042364Y021892D03*
X041364Y021892D03*
X040364Y021892D03*
X037364Y021392D03*
X035864Y021392D03*
X034364Y020892D03*
X033364Y020892D03*
X032864Y021892D03*
X031864Y021892D03*
X030864Y021892D03*
X029864Y021892D03*
X028864Y021892D03*
X027864Y021892D03*
X028864Y020642D03*
X028364Y019892D03*
X029364Y019892D03*
X030864Y019892D03*
X031364Y020642D03*
X031864Y019892D03*
X033864Y021892D03*
X035864Y023392D03*
X037364Y023392D03*
X040364Y025892D03*
X041364Y025892D03*
X042364Y025892D03*
X043364Y025892D03*
X044364Y027392D03*
X044364Y029392D03*
X043864Y030892D03*
X042864Y030892D03*
X041864Y030892D03*
X040864Y030892D03*
X037864Y030892D03*
X036864Y030892D03*
X034614Y032392D03*
X033864Y031892D03*
X033864Y032892D03*
X032114Y032392D03*
X031364Y031892D03*
X031364Y032892D03*
X029364Y034892D03*
X029364Y035892D03*
X029364Y036892D03*
X033364Y036892D03*
X034364Y036892D03*
X034364Y035892D03*
X033364Y035892D03*
X033364Y034892D03*
X036364Y035892D03*
X036864Y034892D03*
X037864Y034892D03*
X037864Y035892D03*
X037864Y036892D03*
X036364Y036892D03*
X039864Y036892D03*
X039864Y035892D03*
X040864Y034892D03*
X041864Y034892D03*
X041864Y035892D03*
X042864Y034892D03*
X043864Y034892D03*
X043864Y035892D03*
X043864Y036892D03*
X041864Y036892D03*
X033864Y025892D03*
X032864Y025892D03*
X031864Y025892D03*
X030864Y025892D03*
X029864Y025892D03*
X028864Y025892D03*
X027864Y025892D03*
X025864Y025892D03*
X024864Y025892D03*
X024364Y027892D03*
X023614Y028392D03*
X024364Y028892D03*
X025614Y028392D03*
X026364Y027892D03*
X026364Y028892D03*
X026364Y030892D03*
X026364Y031892D03*
X024364Y031892D03*
X024364Y030892D03*
X023364Y032892D03*
X021864Y033892D03*
X023364Y034892D03*
X021864Y029892D03*
X015864Y036892D03*
X013864Y036892D03*
X006864Y024892D03*
X006364Y024142D03*
X005864Y024892D03*
X005864Y022892D03*
X005864Y021892D03*
X005864Y020892D03*
X009864Y020892D03*
X009864Y021892D03*
X009864Y022892D03*
X010364Y014392D03*
X011864Y013892D03*
X011864Y012892D03*
X011864Y011892D03*
X009864Y011392D03*
X009114Y011892D03*
X009864Y012392D03*
X008364Y014392D03*
X015864Y013892D03*
X015864Y012892D03*
X015864Y011892D03*
X021364Y016892D03*
X023364Y016892D03*
X023364Y018892D03*
X021364Y018892D03*
X024864Y021892D03*
X025864Y021892D03*
X026364Y020642D03*
X025864Y019892D03*
X026864Y019892D03*
X033364Y016892D03*
X034364Y016892D03*
D15*
X036864Y012892D03*
X040864Y012892D03*
D16*
X019864Y016892D03*
X019864Y018892D03*
D17*
X035864Y024892D03*
X037864Y024892D03*
D18*
X021864Y036892D03*
D19*
X021864Y034892D03*
D20*
X035364Y014392D03*
D21*
X033364Y014392D03*
D22*
X030364Y013392D03*
X030364Y012392D03*
X026364Y012392D03*
X026364Y013392D03*
X009864Y027392D03*
X009864Y028392D03*
X009864Y029392D03*
X009864Y030392D03*
X009864Y031392D03*
X009864Y032392D03*
X009864Y033392D03*
X009864Y034392D03*
X009864Y035392D03*
X024864Y034892D03*
X024864Y033892D03*
X024864Y035892D03*
X024864Y036892D03*
X027864Y036892D03*
X027864Y035892D03*
X027864Y034892D03*
X027864Y033892D03*
X043864Y012892D03*
X043864Y011892D03*
X043864Y010892D03*
D23*
X035864Y009892D03*
X034864Y009892D03*
X033864Y009892D03*
D24*
X006864Y035892D03*
X005864Y036892D03*
X007864Y036892D03*
D25*
X017864Y035392D03*
D26*
X017864Y034392D03*
X017864Y033392D03*
X017864Y032392D03*
X017864Y031392D03*
X017864Y030392D03*
X017864Y029392D03*
X017864Y028392D03*
X017864Y027392D03*
X017864Y026392D03*
X017864Y025392D03*
X017864Y024392D03*
X017864Y023392D03*
X017864Y022392D03*
X017864Y021392D03*
X017864Y020392D03*
X017864Y019392D03*
X017864Y018392D03*
X017864Y017392D03*
X017864Y016392D03*
X011864Y016392D03*
X011864Y017392D03*
X011864Y018392D03*
X011864Y019392D03*
X011864Y020392D03*
X011864Y021392D03*
X011864Y022392D03*
X011864Y023392D03*
X011864Y024392D03*
X011864Y025392D03*
X011864Y026392D03*
X011864Y027392D03*
X011864Y028392D03*
X011864Y029392D03*
X011864Y030392D03*
X011864Y031392D03*
X011864Y032392D03*
X011864Y033392D03*
X011864Y034392D03*
X011864Y035392D03*
D27*
X019864Y035392D03*
X019864Y034392D03*
X019864Y033392D03*
X019864Y032392D03*
X019864Y031392D03*
X019864Y030392D03*
X019864Y029392D03*
X019864Y028392D03*
X019864Y027392D03*
X009864Y025892D03*
X009864Y024892D03*
X009864Y023892D03*
X019864Y036392D03*
D28*
X005864Y014172D03*
X005864Y011612D03*
D29*
X025364Y015392D03*
X025364Y017392D03*
X031364Y017392D03*
X031364Y015392D03*
D30*
X016364Y009392D03*
X015364Y009392D03*
X014364Y009392D03*
X013364Y009392D03*
X012364Y009392D03*
X012364Y008392D03*
X013364Y008392D03*
X014364Y008392D03*
X015364Y008392D03*
X016364Y008392D03*
D31*
X019770Y005951D03*
X009057Y005951D03*
D32*
X040364Y008211D03*
X040364Y010613D03*
D33*
X038475Y009392D03*
D34*
X028364Y013392D03*
X027364Y010892D03*
X025364Y014392D03*
X026364Y016392D03*
X023864Y020892D03*
X021864Y021892D03*
X023364Y023392D03*
X026364Y023392D03*
X028364Y024392D03*
X026364Y026892D03*
X028364Y027892D03*
X027364Y028892D03*
X028364Y030392D03*
X028364Y031392D03*
X028364Y032392D03*
X025864Y030392D03*
X022864Y028392D03*
X022364Y027892D03*
X018864Y027892D03*
X016364Y025892D03*
X011364Y020892D03*
X013364Y018392D03*
X010864Y015392D03*
X011364Y014392D03*
X017864Y013892D03*
X018864Y010392D03*
X023364Y006892D03*
X033364Y019392D03*
X034364Y019892D03*
X034364Y027892D03*
X029864Y027892D03*
X029864Y028892D03*
X034364Y033392D03*
X035364Y032892D03*
X031864Y034892D03*
X030364Y036892D03*
X031364Y037892D03*
X020864Y034892D03*
X012364Y037392D03*
X011364Y036892D03*
X010364Y037392D03*
X008864Y033892D03*
X007864Y033892D03*
X006864Y034892D03*
X004864Y032892D03*
X004364Y032392D03*
X007864Y027892D03*
X021364Y020392D03*
D35*
X002364Y006892D03*
X002364Y038892D03*
X043864Y038892D03*
X043864Y006892D03*
M02*
