%
M48
M72
T01C0.0240
T02C0.0320
T03C0.0360
T04C0.0394
T05C0.0400
T06C0.0440
T07C0.1102
T08C0.1260
T09C0.1300
%
T01
X18431Y13392
X19431Y10892
X21431Y14392
X20431Y16392
X22931Y20892
X24931Y21892
X23431Y23392
X20431Y23392
X18431Y24392
X20431Y26892
X18431Y27892
X19431Y28892
X18431Y30392
X18431Y31392
X18431Y32392
X20931Y30392
X23931Y28392
X24431Y27892
X27931Y27892
X30431Y25892
X35431Y20892
X33431Y18392
X35931Y15392
X35431Y14392
X28931Y13892
X26931Y16892
X26931Y18892
X25431Y20392
X16931Y27892
X16931Y28892
X12431Y27892
X10931Y24892
X8931Y24892
X12431Y19892
X13431Y19392
X23431Y6892
X27931Y10392
X38931Y27892
X42431Y32392
X41931Y32892
X39931Y34892
X39931Y35892
X38931Y36892
X40931Y36892
X38931Y33892
X37931Y33892
X35431Y36892
X34431Y37392
X36431Y37392
X25931Y34892
X16431Y36892
X15431Y37892
X14931Y34892
X12431Y33392
X11431Y32892
T02
X12181Y32392
X12931Y31892
X12931Y32892
X14681Y32392
X15431Y31892
X15431Y32892
X13431Y34892
X13431Y35892
X12431Y35892
X12431Y36892
X13431Y36892
X10431Y36892
X10431Y35892
X9931Y34892
X8931Y34892
X8931Y35892
X8931Y36892
X6931Y36892
X6931Y35892
X5931Y34892
X4931Y34892
X3931Y34892
X2931Y34892
X2931Y35892
X2931Y36892
X4931Y36892
X4931Y35892
X4931Y30892
X3931Y30892
X2931Y30892
X3431Y29892
X4431Y29892
X5431Y29892
X6431Y29892
X7431Y29892
X8431Y29892
X9431Y29892
X10431Y29892
X11431Y29892
X12431Y29892
X13431Y29892
X14431Y29892
X15431Y29892
X16431Y29892
X16431Y26892
X15431Y26892
X14431Y26892
X13431Y26892
X12431Y26892
X11431Y26892
X10431Y26892
X9431Y26892
X8431Y26892
X7431Y26892
X6431Y26892
X5431Y26892
X4431Y26892
X3431Y26892
X2431Y27392
X3431Y25892
X4431Y25892
X5431Y25892
X6431Y25892
X9431Y23392
X10931Y23392
X12931Y21892
X13931Y21892
X14931Y21892
X15931Y21892
X16931Y21892
X17931Y21892
X18931Y21892
X17931Y20642
X17431Y19892
X18431Y19892
X19931Y19892
X20431Y20642
X20931Y19892
X20931Y21892
X21931Y21892
X23431Y18892
X25431Y18892
X25431Y16892
X23431Y16892
X20431Y13392
X20431Y12392
X16431Y12392
X16431Y13392
X13431Y16892
X12431Y16892
X9931Y18142
X9431Y18892
X10431Y18892
X12431Y20892
X13431Y20892
X14931Y19892
X15431Y20642
X15931Y19892
X10931Y21392
X9431Y21392
X7431Y20892
X6431Y20892
X5431Y20892
X4431Y20892
X3431Y20892
X3431Y21892
X4431Y21892
X5431Y21892
X6431Y21892
X6431Y16892
X5431Y16892
X4431Y16892
X3431Y16892
X5931Y15392
X6681Y14892
X5931Y14392
X8181Y14892
X8931Y14392
X8931Y15392
X7431Y16892
X2931Y12892
X2931Y11892
X2931Y10892
X12931Y25892
X13931Y25892
X14931Y25892
X15931Y25892
X16931Y25892
X17931Y25892
X18931Y25892
X20931Y25892
X21931Y25892
X22431Y27892
X23181Y28392
X22431Y28892
X21181Y28392
X20431Y27892
X20431Y28892
X20431Y30892
X20431Y31892
X22431Y31892
X22431Y30892
X23431Y32892
X24931Y33892
X24931Y34892
X23431Y34892
X21931Y34892
X21931Y33892
X21931Y35892
X21931Y36892
X18931Y36892
X18931Y35892
X18931Y34892
X18931Y33892
X17431Y34892
X17431Y35892
X17431Y36892
X24931Y36892
X28931Y35392
X28931Y34392
X28931Y33392
X28931Y32392
X28931Y31392
X28931Y30392
X28931Y29392
X28931Y28392
X28931Y27392
X28931Y26392
X28931Y25392
X28931Y24392
X28931Y23392
X28931Y22392
X28931Y21392
X28931Y20392
X28931Y19392
X28931Y18392
X28931Y17392
X28931Y16392
X30931Y13892
X30931Y12892
X30931Y11892
X34931Y11892
X34931Y12892
X34931Y13892
X36431Y14392
X36931Y12392
X37681Y11892
X36931Y11392
X38431Y14392
X38431Y16392
X39431Y16392
X40431Y16392
X37431Y16392
X34931Y16392
X34931Y17392
X34931Y18392
X34931Y19392
X34931Y20392
X34931Y21392
X34931Y22392
X34931Y23392
X34931Y24392
X34931Y25392
X34931Y26392
X34931Y27392
X34931Y28392
X34931Y29392
X34931Y30392
X34931Y31392
X34931Y32392
X34931Y33392
X34931Y34392
X34931Y35392
X36931Y35392
X36931Y34392
X36931Y33392
X36931Y32392
X36931Y31392
X36931Y30392
X36931Y29392
X36931Y28392
X36931Y27392
X39931Y24892
X40431Y24142
X40931Y24892
X40931Y22892
X40931Y21892
X40931Y20892
X40431Y19392
X39431Y19392
X38431Y19392
X37431Y19392
X36931Y20892
X36931Y21892
X36931Y22892
X24931Y29892
X30931Y36892
X32931Y36892
X9931Y30892
X8931Y30892
X5931Y30892
X2431Y29392
T03
X15431Y17392
X15431Y15392
X21431Y15392
X21431Y17392
X40931Y14172
X40931Y11612
T04
X34431Y9392
X33431Y9392
X32431Y9392
X31431Y9392
X30431Y9392
X30431Y8392
X31431Y8392
X32431Y8392
X33431Y8392
X34431Y8392
X8321Y9392
X6431Y8211
X6431Y10613
T05
X10931Y9892
X11931Y9892
X12931Y9892
X13431Y14392
X11431Y14392
X19771Y8892
X20851Y8892
X21931Y8892
X21391Y7892
X20311Y7892
X22471Y7892
X23551Y7892
X23011Y8892
X24091Y8892
X37931Y8392
X37931Y9392
X38931Y9392
X38931Y8392
X39931Y8392
X39931Y9392
X40931Y9392
X40931Y8392
X26931Y21892
X25931Y21892
X25931Y22892
X25931Y23892
X26931Y23892
X26931Y22892
X26931Y24892
X25931Y24892
X26931Y27392
X26931Y28392
X26931Y29392
X26931Y30392
X26931Y31392
X26931Y32392
X26931Y33392
X26931Y34392
X26931Y35392
X26931Y36392
X36931Y25892
X36931Y24892
X36931Y23892
X39931Y26892
X39931Y27892
X40931Y27892
X40931Y26892
X40931Y28892
X39931Y28892
X39931Y29892
X39931Y30892
X40931Y30892
X40931Y29892
X40931Y31892
X39931Y31892
X39931Y32892
X40931Y32892
X40931Y33892
X39931Y33892
T06
X9931Y12892
X5931Y12892
T07
X27026Y5951
X37738Y5951
T08
X2931Y6892
X2931Y9392
X2931Y14392
X2931Y38892
X44431Y38892
X44431Y6892
T09
X26861Y8392
X17001Y8392
M30
