G75*
G70*
%OFA0B0*%
%FSLAX24Y24*%
%IPPOS*%
%LPD*%
%AMOC8*
5,1,8,0,0,1.08239X$1,22.5*
%
%ADD10C,0.1340*%
%ADD11O,0.0624X0.1168*%
%ADD12OC8,0.0760*%
%ADD13C,0.2290*%
%ADD14OC8,0.0624*%
%ADD15C,0.0828*%
%ADD16O,0.0960X0.0520*%
%ADD17O,0.0520X0.0960*%
%ADD18C,0.0830*%
%ADD19OC8,0.0830*%
%ADD20C,0.1080*%
%ADD21OC8,0.1080*%
%ADD22O,0.1168X0.0624*%
%ADD23O,0.0760X0.1440*%
%ADD24C,0.0520*%
%ADD25C,0.0710*%
%ADD26OC8,0.0710*%
%ADD27O,0.1440X0.0760*%
%ADD28OC8,0.0930*%
%ADD29OC8,0.0692*%
%ADD30OC8,0.0749*%
%ADD31C,0.1182*%
%ADD32O,0.1655X0.0867*%
%ADD33O,0.0867X0.1655*%
%ADD34C,0.0480*%
%ADD35C,0.1970*%
D10*
X002931Y009392D03*
X002931Y014392D03*
D11*
X003431Y026892D03*
X004431Y026892D03*
X005431Y026892D03*
X006431Y026892D03*
X007431Y026892D03*
X008431Y026892D03*
X009431Y026892D03*
X010431Y026892D03*
X011431Y026892D03*
X012431Y026892D03*
X013431Y026892D03*
X014431Y026892D03*
X015431Y026892D03*
X016431Y026892D03*
X016431Y029892D03*
X015431Y029892D03*
X014431Y029892D03*
X013431Y029892D03*
X012431Y029892D03*
X011431Y029892D03*
X010431Y029892D03*
X009431Y029892D03*
X008431Y029892D03*
X007431Y029892D03*
X006431Y029892D03*
X005431Y029892D03*
X004431Y029892D03*
X003431Y029892D03*
X037431Y019392D03*
X038431Y019392D03*
X039431Y019392D03*
X040431Y019392D03*
X040431Y016392D03*
X039431Y016392D03*
X038431Y016392D03*
X037431Y016392D03*
D12*
X037931Y009392D03*
X037931Y008392D03*
X038931Y008392D03*
X038931Y009392D03*
X039931Y009392D03*
X039931Y008392D03*
X040931Y008392D03*
X040931Y009392D03*
X026931Y021892D03*
X025931Y021892D03*
X025931Y022892D03*
X025931Y023892D03*
X026931Y023892D03*
X026931Y022892D03*
X026931Y024892D03*
X025931Y024892D03*
X039931Y026892D03*
X039931Y027892D03*
X040931Y027892D03*
X040931Y026892D03*
X040931Y028892D03*
X039931Y028892D03*
X039931Y029892D03*
X039931Y030892D03*
X040931Y030892D03*
X040931Y029892D03*
X040931Y031892D03*
X039931Y031892D03*
X039931Y032892D03*
X040931Y032892D03*
X040931Y033892D03*
X039931Y033892D03*
X024091Y008892D03*
X023011Y008892D03*
X022471Y007892D03*
X023551Y007892D03*
X021931Y008892D03*
X020851Y008892D03*
X019771Y008892D03*
X020311Y007892D03*
X021391Y007892D03*
D13*
X017001Y008392D03*
X026861Y008392D03*
D14*
X030931Y011892D03*
X030931Y012892D03*
X030931Y013892D03*
X034931Y013892D03*
X034931Y012892D03*
X034931Y011892D03*
X036931Y011392D03*
X037681Y011892D03*
X036931Y012392D03*
X036431Y014392D03*
X038431Y014392D03*
X036931Y020892D03*
X036931Y021892D03*
X036931Y022892D03*
X039931Y024892D03*
X040431Y024142D03*
X040931Y024892D03*
X040931Y022892D03*
X040931Y021892D03*
X040931Y020892D03*
X025431Y018892D03*
X023431Y018892D03*
X023431Y016892D03*
X025431Y016892D03*
X020931Y019892D03*
X020431Y020642D03*
X019931Y019892D03*
X018431Y019892D03*
X017931Y020642D03*
X017431Y019892D03*
X015931Y019892D03*
X015431Y020642D03*
X014931Y019892D03*
X013431Y020892D03*
X012431Y020892D03*
X012931Y021892D03*
X013931Y021892D03*
X014931Y021892D03*
X015931Y021892D03*
X016931Y021892D03*
X017931Y021892D03*
X018931Y021892D03*
X020931Y021892D03*
X021931Y021892D03*
X021931Y025892D03*
X020931Y025892D03*
X018931Y025892D03*
X017931Y025892D03*
X016931Y025892D03*
X015931Y025892D03*
X014931Y025892D03*
X013931Y025892D03*
X012931Y025892D03*
X010931Y023392D03*
X009431Y023392D03*
X009431Y021392D03*
X010931Y021392D03*
X010431Y018892D03*
X009931Y018142D03*
X009431Y018892D03*
X007431Y016892D03*
X006431Y016892D03*
X005431Y016892D03*
X004431Y016892D03*
X003431Y016892D03*
X005931Y015392D03*
X006681Y014892D03*
X005931Y014392D03*
X008181Y014892D03*
X008931Y014392D03*
X008931Y015392D03*
X012431Y016892D03*
X013431Y016892D03*
X007431Y020892D03*
X006431Y020892D03*
X005431Y020892D03*
X004431Y020892D03*
X003431Y020892D03*
X003431Y021892D03*
X004431Y021892D03*
X005431Y021892D03*
X006431Y021892D03*
X006431Y025892D03*
X005431Y025892D03*
X004431Y025892D03*
X003431Y025892D03*
X002431Y027392D03*
X002431Y029392D03*
X002931Y030892D03*
X003931Y030892D03*
X004931Y030892D03*
X005931Y030892D03*
X008931Y030892D03*
X009931Y030892D03*
X012181Y032392D03*
X012931Y031892D03*
X012931Y032892D03*
X014681Y032392D03*
X015431Y031892D03*
X015431Y032892D03*
X013431Y034892D03*
X013431Y035892D03*
X012431Y035892D03*
X012431Y036892D03*
X013431Y036892D03*
X010431Y036892D03*
X010431Y035892D03*
X009931Y034892D03*
X008931Y034892D03*
X008931Y035892D03*
X008931Y036892D03*
X006931Y036892D03*
X006931Y035892D03*
X005931Y034892D03*
X004931Y034892D03*
X003931Y034892D03*
X002931Y034892D03*
X002931Y035892D03*
X002931Y036892D03*
X004931Y036892D03*
X004931Y035892D03*
X017431Y035892D03*
X017431Y034892D03*
X017431Y036892D03*
X020431Y031892D03*
X020431Y030892D03*
X020431Y028892D03*
X021181Y028392D03*
X020431Y027892D03*
X022431Y027892D03*
X023181Y028392D03*
X022431Y028892D03*
X022431Y030892D03*
X022431Y031892D03*
X023431Y032892D03*
X024931Y033892D03*
X023431Y034892D03*
X024931Y029892D03*
X030931Y036892D03*
X032931Y036892D03*
D15*
X009931Y012892D03*
X005931Y012892D03*
D16*
X026931Y016892D03*
X026931Y018892D03*
D17*
X010931Y024892D03*
X008931Y024892D03*
D18*
X024931Y036892D03*
D19*
X024931Y034892D03*
D20*
X011431Y014392D03*
D21*
X013431Y014392D03*
D22*
X016431Y013392D03*
X016431Y012392D03*
X020431Y012392D03*
X020431Y013392D03*
X036931Y027392D03*
X036931Y028392D03*
X036931Y029392D03*
X036931Y030392D03*
X036931Y031392D03*
X036931Y032392D03*
X036931Y033392D03*
X036931Y034392D03*
X036931Y035392D03*
X021931Y034892D03*
X021931Y033892D03*
X021931Y035892D03*
X021931Y036892D03*
X018931Y036892D03*
X018931Y035892D03*
X018931Y034892D03*
X018931Y033892D03*
X002931Y012892D03*
X002931Y011892D03*
X002931Y010892D03*
D23*
X010931Y009892D03*
X011931Y009892D03*
X012931Y009892D03*
D24*
X039931Y035892D03*
X038931Y036892D03*
X040931Y036892D03*
D25*
X028931Y035392D03*
D26*
X028931Y034392D03*
X028931Y033392D03*
X028931Y032392D03*
X028931Y031392D03*
X028931Y030392D03*
X028931Y029392D03*
X028931Y028392D03*
X028931Y027392D03*
X028931Y026392D03*
X028931Y025392D03*
X028931Y024392D03*
X028931Y023392D03*
X028931Y022392D03*
X028931Y021392D03*
X028931Y020392D03*
X028931Y019392D03*
X028931Y018392D03*
X028931Y017392D03*
X028931Y016392D03*
X034931Y016392D03*
X034931Y017392D03*
X034931Y018392D03*
X034931Y019392D03*
X034931Y020392D03*
X034931Y021392D03*
X034931Y022392D03*
X034931Y023392D03*
X034931Y024392D03*
X034931Y025392D03*
X034931Y026392D03*
X034931Y027392D03*
X034931Y028392D03*
X034931Y029392D03*
X034931Y030392D03*
X034931Y031392D03*
X034931Y032392D03*
X034931Y033392D03*
X034931Y034392D03*
X034931Y035392D03*
D27*
X026931Y035392D03*
X026931Y034392D03*
X026931Y033392D03*
X026931Y032392D03*
X026931Y031392D03*
X026931Y030392D03*
X026931Y029392D03*
X026931Y028392D03*
X026931Y027392D03*
X036931Y025892D03*
X036931Y024892D03*
X036931Y023892D03*
X026931Y036392D03*
D28*
X040931Y014172D03*
X040931Y011612D03*
D29*
X021431Y015392D03*
X021431Y017392D03*
X015431Y017392D03*
X015431Y015392D03*
D30*
X030431Y009392D03*
X030431Y008392D03*
X031431Y008392D03*
X031431Y009392D03*
X032431Y009392D03*
X032431Y008392D03*
X033431Y008392D03*
X033431Y009392D03*
X034431Y009392D03*
X034431Y008392D03*
D31*
X037738Y005951D03*
X027026Y005951D03*
D32*
X006431Y008211D03*
X006431Y010613D03*
D33*
X008321Y009392D03*
D34*
X018431Y013392D03*
X019431Y010892D03*
X021431Y014392D03*
X020431Y016392D03*
X022931Y020892D03*
X024931Y021892D03*
X023431Y023392D03*
X020431Y023392D03*
X018431Y024392D03*
X020431Y026892D03*
X018431Y027892D03*
X019431Y028892D03*
X018431Y030392D03*
X018431Y031392D03*
X018431Y032392D03*
X020931Y030392D03*
X023931Y028392D03*
X024431Y027892D03*
X027931Y027892D03*
X030431Y025892D03*
X035431Y020892D03*
X033431Y018392D03*
X035931Y015392D03*
X035431Y014392D03*
X028931Y013892D03*
X027931Y010392D03*
X023431Y006892D03*
X013431Y019392D03*
X012431Y019892D03*
X012431Y027892D03*
X016931Y027892D03*
X016931Y028892D03*
X012431Y033392D03*
X011431Y032892D03*
X014931Y034892D03*
X016431Y036892D03*
X015431Y037892D03*
X025931Y034892D03*
X034431Y037392D03*
X035431Y036892D03*
X036431Y037392D03*
X037931Y033892D03*
X038931Y033892D03*
X039931Y034892D03*
X041931Y032892D03*
X042431Y032392D03*
X038931Y027892D03*
X025431Y020392D03*
D35*
X002931Y006892D03*
X002931Y038892D03*
X044431Y038892D03*
X044431Y006892D03*
M02*
